{
  "accessors": [
    {
      "bufferView": 2,
      "componentType": 5126,
      "count": 46062,
      "max": [
        0.029938660562038422,
        0.02818191796541214,
        0.14177797734737396
      ],
      "min": [
        -0.028927363455295563,
        -0.030649781227111816,
        0.00020403914095368236
      ],
      "type": "VEC3"
    },
    {
      "bufferView": 2,
      "byteOffset": 552744,
      "componentType": 5126,
      "count": 46062,
      "max": [
        0.99999964237213135,
        0.99999964237213135,
        1
      ],
      "min": [
        -0.99999964237213135,
        -1,
        -1
      ],
      "type": "VEC3"
    },
    {
      "bufferView": 3,
      "componentType": 5126,
      "count": 46062,
      "max": [
        1,
        0.99997526407241821,
        0.99701738357543945,
        1
      ],
      "min": [
        -0.99999904632568359,
        -0.99993240833282471,
        -0.88481897115707397,
        1
      ],
      "type": "VEC4"
    },
    {
      "bufferView": 1,
      "componentType": 5126,
      "count": 46062,
      "max": [
        0.99326997995376587,
        0.96722310781478882
      ],
      "min": [
        0.0095259398221969604,
        0.031463775783777237
      ],
      "type": "VEC2"
    },
    {
      "bufferView": 0,
      "componentType": 5125,
      "count": 268032,
      "max": [
        46061
      ],
      "min": [
        0
      ],
      "type": "SCALAR"
    }
  ],
  "asset": {
    "extras": {
      "author": "Jhon Maycon_22 (https://sketchfab.com/JHON_22)",
      "license": "CC-BY-4.0 (http://creativecommons.org/licenses/by/4.0/)",
      "source": "https://sketchfab.com/models/cf88edf8880c4e99aa02d5c9fc1aa68d",
      "title": "Kokeshi Boneca japonesa 03"
    },
    "generator": "Sketchfab-3.32.3",
    "version": "2.0"
  },
  "bufferViews": [
    {
      "buffer": 0,
      "byteLength": 1072128,
      "byteOffset": 0,
      "name": "floatBufferViews",
      "target": 34963
    },
    {
      "buffer": 0,
      "byteLength": 368496,
      "byteOffset": 1072128,
      "byteStride": 8,
      "name": "floatBufferViews",
      "target": 34962
    },
    {
      "buffer": 0,
      "byteLength": 1105488,
      "byteOffset": 1440624,
      "byteStride": 12,
      "name": "floatBufferViews",
      "target": 34962
    },
    {
      "buffer": 0,
      "byteLength": 736992,
      "byteOffset": 2546112,
      "byteStride": 16,
      "name": "floatBufferViews",
      "target": 34962
    }
  ],
  "buffers": [
    {
      "byteLength": 3283104,
      "uri": "scene.bin"
    }
  ],
  "images": [
    {
      "uri": "textures/Boneca_japonesa.03_metallicRoughness.png"
    },
    {
      "uri": "textures/Boneca_japonesa.03_baseColor.png"
    },
    {
      "uri": "textures/Boneca_japonesa.03_normal.png"
    }
  ],
  "materials": [
    {
      "doubleSided": false,
      "name": "Boneca_japonesa.03",
      "normalTexture": {
        "index": 2,
        "scale": 1,
        "texCoord": 0
      },
      "occlusionTexture": {
        "index": 0,
        "strength": 1,
        "texCoord": 0
      },
      "pbrMetallicRoughness": {
        "baseColorFactor": [
          1,
          1,
          1,
          1
        ],
        "baseColorTexture": {
          "index": 1,
          "texCoord": 0
        },
        "metallicFactor": 1,
        "metallicRoughnessTexture": {
          "index": 0,
          "texCoord": 0
        },
        "roughnessFactor": 1
      }
    }
  ],
  "meshes": [
    {
      "name": "Cube.006_Boneca japonesa.03_0",
      "primitives": [
        {
          "attributes": {
            "NORMAL": 1,
            "POSITION": 0,
            "TANGENT": 2,
            "TEXCOORD_0": 3
          },
          "indices": 4,
          "material": 0,
          "mode": 4
        }
      ]
    }
  ],
  "nodes": [
    {
      "children": [
        1
      ],
      "name": "RootNode (gltf orientation matrix)",
      "rotation": [
        -0.70710678118654746,
        -0,
        -0,
        0.70710678118654757
      ]
    },
    {
      "children": [
        2
      ],
      "name": "RootNode (model correction matrix)"
    },
    {
      "children": [
        3
      ],
      "matrix": [
        1,
        0,
        0,
        0,
        0,
        0,
        1,
        0,
        0,
        -1,
        0,
        0,
        0,
        0,
        0,
        1
      ],
      "name": "97a0668f411743058378f0d63ab80bf4.fbx"
    },
    {
      "children": [
        4
      ],
      "name": "RootNode"
    },
    {
      "children": [
        5
      ],
      "matrix": [
        -99.999999999992411,
        1.2246465878873718e-14,
        3.8941437775530106e-05,
        0,
        3.8941437775529998e-05,
        7.5497899820753389e-06,
        99.999999999992127,
        0,
        -2.9277502948264183e-12,
        99.999999999999702,
        -7.5497899709731087e-06,
        0,
        0.93816256523132324,
        0.0039938720874488354,
        236.95661926269531,
        1
      ],
      "name": "Cube.006"
    },
    {
      "mesh": 0,
      "name": "Cube.006_Boneca japonesa.03_0"
    }
  ],
  "samplers": [
    {
      "magFilter": 9729,
      "minFilter": 9987,
      "wrapS": 10497,
      "wrapT": 10497
    }
  ],
  "scene": 0,
  "scenes": [
    {
      "name": "OSG_Scene",
      "nodes": [
        0
      ]
    }
  ],
  "textures": [
    {
      "sampler": 0,
      "source": 0
    },
    {
      "sampler": 0,
      "source": 1
    },
    {
      "sampler": 0,
      "source": 2
    }
  ]
}

